<svg xmlns="http://www.w3.org/2000/svg" version="1.1" xmlns:xlink="http://www.w3.org/1999/xlink" xmlns:svgjs="http://svgjs.dev/svgjs" width="1500" height="496" viewBox="0 0 1500 496"><g transform="matrix(1,0,0,1,-0.9090909090909918,-0.10766370670407355)"><svg viewBox="0 0 396 131" data-background-color="#ffffff" preserveAspectRatio="xMidYMid meet" height="496" width="1500" xmlns="http://www.w3.org/2000/svg" xmlns:xlink="http://www.w3.org/1999/xlink"><g id="tight-bounds" transform="matrix(1,0,0,1,0.2400000000000091,0.028435374149665904)"><svg viewBox="0 0 395.52 130.94312925170067" height="130.94312925170067" width="395.52"><g><svg viewBox="0 0 395.52 130.94312925170067" height="130.94312925170067" width="395.52"><g><svg viewBox="0 0 395.52 130.94312925170067" height="130.94312925170067" width="395.52"><g id="textblocktransform"><svg viewBox="0 0 395.52 130.94312925170067" height="130.94312925170067" width="395.52" id="textblock"><g><svg viewBox="0 0 395.52 130.94312925170067" height="130.94312925170067" width="395.52"><g transform="matrix(1,0,0,1,0,0)"><svg width="395.52" viewBox="0.8 -31.75 110.24000000000001 36.5" height="130.94312925170067" data-palette-color="#3ea060"><path d="M14.55-28.95L14.55-28.95Q14.85-29 16.18-29 17.5-29 19.38-28.53 21.25-28.05 23.03-26.98 24.8-25.9 25.88-23.83 26.95-21.75 26.95-18.9L26.95-18.9Q26.95-14.2 23.3-11.3 19.65-8.4 13.65-8.4L13.65-8.4Q13.65 1.35 10.2 1.35L10.2 1.35Q7.9 1.35 7.9-0.6L7.9-0.6Q7.9-1.2 8.5-2.25 9.1-3.3 9.35-4.65 9.6-6 9.75-9L9.75-9Q7.7-9.65 7.7-10.8 7.7-11.95 8.75-11.95L8.75-11.95Q9.3-11.95 9.85-11.8L9.85-11.8Q10.5-25.15 10.75-26.55L10.75-26.55Q7.9-25.85 6.03-24.25 4.15-22.65 4.15-20.45L4.15-20.45Q4.15-19.2 3.63-18.5 3.1-17.8 2.3-17.8L2.3-17.8Q0.8-17.8 0.8-19.5L0.8-19.5Q0.8-22.85 3.78-25.28 6.75-27.7 11.2-28.55L11.2-28.55Q12.15-31.75 13.85-31.75L13.85-31.75Q14.55-31.75 14.55-28.95ZM23.2-17.5L23.2-17.5Q23.2-22 20.63-24.38 18.05-26.75 14.4-26.9L14.4-26.9Q13.65-18.05 13.65-10.25L13.65-10.25Q14.35-10.15 14.75-10.15L14.75-10.15Q18.95-10.15 21.08-12.3 23.2-14.45 23.2-17.5ZM47.45-2.3L47.45-2.3Q48.35-2.3 49.85-4.38 51.35-6.45 52.82-9.73 54.3-13 54.62-13 54.95-13 54.95-12.6L54.95-12.6Q54.95-11.2 53.5-8.15L53.5-8.15Q49.55 0.25 46.8 0.25L46.8 0.25Q44.5 0.25 43.5-0.55L43.5-0.55Q43.05-1 43.05-10.05L43.05-10.05 34.85-9.45Q33.9-6.85 33.15-4.25 32.4-1.65 32.15-1.05L32.15-1.05Q31.6 0.25 29.5 0.25L29.5 0.25Q28.1 0.25 28.1-0.95 28.1-2.15 30-4.45L30-4.45Q30.35-4.9 32.3-9.3L32.3-9.3Q31.6-9.25 30.95-9.25L30.95-9.25Q29.2-9.25 29.2-10.75L29.2-10.75Q29.2-12.1 30.6-12.1L30.6-12.1Q30.7-12.1 33.45-11.85L33.45-11.85Q34.2-13.6 35.05-15.3L35.05-15.3Q41.6-29 44.05-29L44.05-29Q45.9-29 46.6-11.85L46.6-11.85 47.05-11.85Q47.4-11.85 47.4-11.35 47.4-10.85 46.65-10.5L46.65-10.5Q46.95-2.3 47.45-2.3ZM35.6-11.6L35.6-11.6Q41.45-11.6 43.05-11.65L43.05-11.65Q43-12.45 42.95-14.45 42.9-16.45 42.85-17.93 42.8-19.4 42.75-21L42.75-21Q42.55-24.45 42.15-24.45L42.15-24.45Q41.6-24.45 39.9-21.2 38.2-17.95 37.25-15.7L37.25-15.7Q35.95-12.45 35.6-11.6ZM72.5-2.3L72.5-2.3Q73.4-2.3 74.9-4.38 76.4-6.45 77.87-9.73 79.35-13 79.67-13 80-13 80-12.6L80-12.6Q80-11.2 78.55-8.15L78.55-8.15Q74.6 0.25 71.85 0.25L71.85 0.25Q69.55 0.25 68.55-0.55L68.55-0.55Q68.1-1 68.1-10.05L68.1-10.05 59.9-9.45Q58.95-6.85 58.2-4.25 57.45-1.65 57.2-1.05L57.2-1.05Q56.65 0.25 54.55 0.25L54.55 0.25Q53.15 0.25 53.15-0.95 53.15-2.15 55.05-4.45L55.05-4.45Q55.4-4.9 57.35-9.3L57.35-9.3Q56.65-9.25 56-9.25L56-9.25Q54.25-9.25 54.25-10.75L54.25-10.75Q54.25-12.1 55.65-12.1L55.65-12.1Q55.75-12.1 58.5-11.85L58.5-11.85Q59.25-13.6 60.1-15.3L60.1-15.3Q66.65-29 69.1-29L69.1-29Q70.95-29 71.65-11.85L71.65-11.85 72.1-11.85Q72.45-11.85 72.45-11.35 72.45-10.85 71.7-10.5L71.7-10.5Q72-2.3 72.5-2.3ZM60.65-11.6L60.65-11.6Q66.5-11.6 68.1-11.65L68.1-11.65Q68.05-12.45 68-14.45 67.95-16.45 67.9-17.93 67.85-19.4 67.8-21L67.8-21Q67.6-24.45 67.2-24.45L67.2-24.45Q66.65-24.45 64.95-21.2 63.25-17.95 62.3-15.7L62.3-15.7Q61-12.45 60.65-11.6ZM108.59 1.65L108.59 1.65 110.59 1.45Q111.04 1.45 111.04 1.85L111.04 1.85Q110.94 2.75 109.47 3.75 107.99 4.75 106.04 4.75L106.04 4.75Q103.94 4.75 101.64 0.05L101.64 0.05Q99.64-3.9 97.59-9.2L97.59-9.2Q96.14-8.4 94.59-8.15L94.59-8.15Q92.39 2 83.79 2L83.79 2Q81.54 2 79.64 0.95 77.74-0.1 77.74-2.3L77.74-2.3Q77.74-3.65 78.44-4.53 79.14-5.4 80.32-5.4 81.49-5.4 81.49-4.85L81.49-4.85Q81.49-4.6 81.19-3.88 80.89-3.15 80.89-2.43 80.89-1.7 81.74-0.88 82.59-0.05 84.29-0.05 85.99-0.05 87.24-0.83 88.49-1.6 89.24-3.1 89.99-4.6 90.47-6.15 90.94-7.7 91.14-10L91.14-10Q91.49-13.3 91.49-17.6 91.49-21.9 91.59-24.5L91.59-24.5Q85.19-23.4 85.19-19L85.19-19Q85.19-17.75 84.67-17.05 84.14-16.35 83.34-16.35L83.34-16.35Q81.84-16.35 81.84-18.05L81.84-18.05Q81.84-21.05 84.54-23.13 87.24-25.2 91.74-26.2L91.74-26.2Q92.09-28.2 93.52-29.5 94.94-30.8 96.07-30.8 97.19-30.8 97.87-30.18 98.54-29.55 98.54-28.5L98.54-28.5Q98.54-26.05 95.14-25.1L95.14-25.1 95.34-15.8Q95.34-12.9 94.99-10.4L94.99-10.4Q97.54-11.2 99.99-14.95 102.44-18.7 104.19-24.5L104.19-24.5Q105.54-29 108.74-29L108.74-29Q110.09-29 110.09-27.35L110.09-27.35Q110.09-25.75 108.09-24.4L108.09-24.4Q107.34-23.9 107.24-23.7L107.24-23.7Q103.34-14.75 100.09-11.3L100.09-11.3Q103.24-4.85 105.22-1.6 107.19 1.65 108.59 1.65ZM96.49-29.1L96.49-29.1Q95.44-29.1 95.19-26.85L95.19-26.85Q96.99-27.4 96.99-28.3L96.99-28.3Q96.99-29.1 96.49-29.1Z" opacity="1" transform="matrix(1,0,0,1,0,0)" fill="#3ea060" class="wordmark-text-0" data-fill-palette-color="primary" id="text-0"></path></svg></g></svg></g></svg></g></svg></g><g></g></svg></g><defs></defs></svg><rect width="395.52" height="130.94312925170067" fill="none" stroke="none" visibility="hidden"></rect></g></svg></g></svg>